<svg height="512pt" viewBox="-75 0 512 512" width="512pt" xmlns="http://www.w3.org/2000/svg"><path d="m181.332031 12.800781c-94.996093 0-172.265625 77.289063-172.265625 172.265625 0 166.527344 158.871094 305.8125 165.632813 311.660156 1.917969 1.640626 4.265625 2.472657 6.632812 2.472657 2.371094 0 4.714844-.832031 6.636719-2.472657 6.761719-5.847656 165.632812-145.132812 165.632812-311.660156 0-94.976562-77.269531-172.265625-172.269531-172.265625zm0 0" fill="#2196f3"/><path d="m298.667969 181.332031c0 64.800781-52.535157 117.335938-117.335938 117.335938s-117.332031-52.535157-117.332031-117.335938 52.53125-117.332031 117.332031-117.332031 117.335938 52.53125 117.335938 117.332031zm0 0" fill="#fafafa"/><path d="m181.332031 512c-2.472656 0-4.96875-.875-6.976562-2.601562-7.125-6.144532-174.355469-152.746094-174.355469-328.066407 0-99.988281 81.34375-181.332031 181.332031-181.332031 99.992188 0 181.335938 81.34375 181.335938 181.332031 0 175.320313-167.234375 321.921875-174.359375 328.066407-2.003906 1.726562-4.5 2.601562-6.976563 2.601562zm0-490.667969c-88.234375 0-160 71.765625-160 160 0 145.964844 128.34375 275.757813 160 305.539063 31.636719-29.804688 160-159.746094 160-305.539063 0-88.234375-71.765625-160-160-160zm0 0"/><path d="m181.332031 298.667969c-64.679687 0-117.332031-52.628907-117.332031-117.335938 0-64.703125 52.652344-117.332031 117.332031-117.332031 64.683594 0 117.335938 52.628906 117.335938 117.332031 0 64.707031-52.652344 117.335938-117.335938 117.335938zm0-213.335938c-52.925781 0-96 43.074219-96 96 0 52.929688 43.074219 96 96 96 52.929688 0 96-43.070312 96-96 0-52.925781-43.070312-96-96-96zm0 0"/></svg>